<svg xmlns="http://www.w3.org/2000/svg" xmlns:xlink="http://www.w3.org/1999/xlink" width="1102.044" height="317.553" viewBox="0 0 1102.044 317.553">
  <defs>
    <radialGradient id="radial-gradient" cx="0.5" cy="0.5" r="0.5" gradientTransform="translate(0)" gradientUnits="objectBoundingBox">
      <stop offset="0.041" stop-color="#fff"/>
      <stop offset="0.999" stop-color="#061e3b"/>
    </radialGradient>
    <radialGradient id="radial-gradient-2" cx="0.5" cy="0.5" r="0.5" xlink:href="#radial-gradient"/>
    <radialGradient id="radial-gradient-3" cx="0.5" cy="0.5" r="0.5" xlink:href="#radial-gradient"/>
  </defs>
  <g id="Grupo_4" data-name="Grupo 4" transform="translate(-57.33 -141.774)">
    <path id="Trazado_1" data-name="Trazado 1" d="M1159.374,436.4a4.8,4.8,0,0,1-2.959,4.463,4.854,4.854,0,0,1-1.907.378,5.058,5.058,0,0,1-1.939-.367,4.638,4.638,0,0,1-1.522-1,4.541,4.541,0,0,1-.995-1.516,5.065,5.065,0,0,1-.362-1.934A4.8,4.8,0,0,1,1151.1,433a4.82,4.82,0,0,1,1.539-1.02,4.9,4.9,0,0,1,1.912-.372,5.148,5.148,0,0,1,1.939.359,4.478,4.478,0,0,1,2.519,2.514A5.059,5.059,0,0,1,1159.374,436.4Zm-1.117.071a4.386,4.386,0,0,0-.276-1.591,3.637,3.637,0,0,0-.775-1.23,3.359,3.359,0,0,0-1.176-.784,3.942,3.942,0,0,0-1.474-.27,3.87,3.87,0,0,0-1.541.3,3.578,3.578,0,0,0-1.943,2.018,4.025,4.025,0,0,0-.264,1.462,4.367,4.367,0,0,0,.277,1.583,3.64,3.64,0,0,0,.773,1.23,3.429,3.429,0,0,0,1.178.789,4.061,4.061,0,0,0,3.021-.025,3.641,3.641,0,0,0,1.181-.814,3.583,3.583,0,0,0,.754-1.2A4.015,4.015,0,0,0,1158.257,436.469Zm-1.458,2.265a.206.206,0,0,1-.021.092.113.113,0,0,1-.091.06,1.215,1.215,0,0,1-.212.033c-.091.009-.214.012-.368.012s-.256,0-.344-.012a.939.939,0,0,1-.21-.043.288.288,0,0,1-.123-.086.379.379,0,0,1-.066-.154l-.262-.849a1.413,1.413,0,0,0-.354-.63.909.909,0,0,0-.612-.179h-.335V438.7a.187.187,0,0,1-.1.186,1.573,1.573,0,0,1-.491.048,1.773,1.773,0,0,1-.506-.048.184.184,0,0,1-.124-.186v-4.433a.628.628,0,0,1,.136-.428.522.522,0,0,1,.408-.154h1.424a4.1,4.1,0,0,1,.873.086,1.815,1.815,0,0,1,.643.274,1.2,1.2,0,0,1,.4.465,1.47,1.47,0,0,1,.138.663,1.263,1.263,0,0,1-.324.925,1.77,1.77,0,0,1-.865.464,1.583,1.583,0,0,1,.557.331,1.851,1.851,0,0,1,.446.7l.3.788A1.834,1.834,0,0,1,1156.8,438.734Zm-1.536-3.416a.928.928,0,0,0-.037-.263.471.471,0,0,0-.142-.214.7.7,0,0,0-.279-.146,1.737,1.737,0,0,0-.433-.05h-.571v1.4h.544a1.016,1.016,0,0,0,.721-.2A.713.713,0,0,0,1155.263,435.318Z" fill="#061e3b" fill-rule="evenodd"/>
    <path id="Trazado_2" data-name="Trazado 2" d="M162.787,305.331s1.043,9.758-1.978,18.47c-2.986,8.592-10.97,17.982-19.667,24.943-15.814,12.67-32.947,22.478-49.6,32.787-17,10.535-24.6,27.183-23.331,35.375,1.96,12.793,8.073,19.82,13.644,23.71,14.7,10.222,55.168,18.729,81.5,18.121v.59c-22.481,0-62.963-5.275-81.154-13.485-15.867-7.172-24.98-16.77-24.877-30.066.124-14.977,13.957-27.32,30.309-37.421,16.682-10.344,27.151-15.571,37.738-22.217,27.828-17.427,37.966-34.975,37.133-50.807Z" fill="#061e3b"/>
    <path id="Trazado_3" data-name="Trazado 3" d="M163.413,305.331s-.9,9.758,2.137,18.47c2.984,8.592,10.935,17.982,19.648,24.943,15.833,12.67,32.931,22.478,49.6,32.787,16.995,10.535,24.614,27.183,23.346,35.375-1.96,12.793-8.071,19.82-13.643,23.71-14.7,10.222-55.2,18.729-81.5,18.121v.59c22.463,0,62.945-5.275,81.152-13.485,15.868-7.172,24.981-16.77,24.861-30.066-.125-14.977-13.958-27.32-30.312-37.421-16.68-10.344-27.13-15.571-37.737-22.217C173.15,338.711,163,321.163,163.83,305.331Z" fill="#061e3b"/>
    <path id="Trazado_4" data-name="Trazado 4" d="M1148.454,420.449H288.886v-3.717h859.568v3.717Z" fill="#061e3b"/>
    <path id="Trazado_5" data-name="Trazado 5" d="M154.491,387.5l-18.037,19.527a1.388,1.388,0,1,1-2.03-1.892l18.035-19.526a1.388,1.388,0,0,1,2.032,1.891Z" fill="#061e3b"/>
    <path id="Trazado_6" data-name="Trazado 6" d="M161.451,383.005l27.913,16.281a1.39,1.39,0,1,1-1.406,2.4l-27.914-16.267a1.4,1.4,0,0,1,1.407-2.413Z" fill="#061e3b"/>
    <path id="Trazado_7" data-name="Trazado 7" d="M162.857,141.827s.556,23.623-1.769,38.013C151.28,240.4,132.7,250.552,104.617,298.963c-10.5,18.1-18.069,38.483-18.816,53.893-1.076,22.08-5.226,37.737,5.433,58.217,10.068,19.406,30.779,45.424,63.135,46.188v.557c-38.435-.906-75.39-34.333-76.624-71.93a231.479,231.479,0,0,1,1.182-36.59c3.765-33.568,39.838-80.311,58.794-108.829,16.613-25,24.373-68.616,24.632-98.695l.5.053Z" fill="#061e3b"/>
    <path id="Trazado_8" data-name="Trazado 8" d="M163.587,141.827s-.469,24.579,1.683,38.013c9.635,60.577,28.382,70.712,56.451,119.123,10.505,18.1,18.056,38.483,18.818,53.893,1.076,22.08,5.227,37.737-5.415,58.217-10.1,19.406-30.776,45.424-63.151,46.188v.557c38.431-.906,75.407-34.333,76.62-71.93a231.07,231.07,0,0,0-1.18-36.59c-3.75-33.568-39.82-80.311-58.778-108.829-16.61-25-24.389-68.616-24.65-98.695l-.4.053Z" fill="#061e3b"/>
    <g id="Grupo_1" data-name="Grupo 1">
      <path id="Trazado_9" data-name="Trazado 9" d="M721.734,408.835V310.765h53.933l51.088,72.781h4.34v-73.8h29.3v99.614H808.527l-53.136-74.707h-3.346v74.188Z" fill="#061e3b"/>
      <path id="Trazado_10" data-name="Trazado 10" d="M676.06,310.263h30.8v99.092h-30.8V310.263Z" fill="#061e3b"/>
      <path id="Trazado_11" data-name="Trazado 11" d="M423.435,309.237h111.41v23.086H454.23v15.415h76v22.6h-76v15.4h80.615v23.621H423.435V309.237Z" fill="#061e3b"/>
      <path id="Trazado_12" data-name="Trazado 12" d="M871.683,377.09h30.36v5.483a4.45,4.45,0,0,0,1.475,2.951,5.571,5.571,0,0,0,3.315,1.145h52.494a7.45,7.45,0,0,0,3.838-1.251,4.622,4.622,0,0,0,1.891-3.365v-5.139a4.848,4.848,0,0,0-1.458-3.452c-1.946-1.531-5.712-1.823-5.712-1.823l-64.333-2.848a22.167,22.167,0,0,1-21.87-22.181V330.9a22.189,22.189,0,0,1,22.185-22.183h75.8A22.175,22.175,0,0,1,991.839,330.9v9.842l-30.394-.018V335.24a4.487,4.487,0,0,0-1.472-2.954,5.52,5.52,0,0,0-3.335-1.143H908.464a7.357,7.357,0,0,0-3.8,1.25,4.6,4.6,0,0,0-1.876,3.369V340.9a4.821,4.821,0,0,0,1.441,3.473c1.927,1.508,5.693,1.8,5.693,1.8l59.51,3.626h.242a22.159,22.159,0,0,1,22.166,22.165v17.376a22.17,22.17,0,0,1-22.166,22.165h-75.8a22.185,22.185,0,0,1-22.185-22.165V377.09Z" fill="#061e3b"/>
      <path id="Trazado_13" data-name="Trazado 13" d="M318.17,333.365v26.7h53.084a11.089,11.089,0,0,0,11.092-11.091v-4.514a11.087,11.087,0,0,0-11.092-11.091Zm77.8,37.526a22.187,22.187,0,0,1,17.186,21.61v16.853H382.242V392.916s.122-4.7-2.03-6.663a8.908,8.908,0,0,0-6.077-2.571H319.714v25.672H288.886V310.263H390.973a22.168,22.168,0,0,1,22.185,22.181V349.28A22.2,22.2,0,0,1,395.972,370.891Z" fill="#061e3b"/>
      <path id="Trazado_14" data-name="Trazado 14" d="M1050.465,370.335h44.161l-18.489-38.514h-6.665Zm-1.617-60.072h47.735l51.871,99.593h-34.91l-7.707-16.417h-67.3l-8.178,15.915H995.436Z" fill="#061e3b" fill-rule="evenodd"/>
      <path id="Trazado_15" data-name="Trazado 15" d="M574.388,333.365v26.7H623.36a11.107,11.107,0,0,0,11.111-11.091v-4.514a11.105,11.105,0,0,0-11.111-11.091Zm-29.282-23.1h97.972a22.167,22.167,0,0,1,22.185,22.181v30.081a22.178,22.178,0,0,1-22.185,22.181H575.917v24.648H545.106V310.263Z" fill="#061e3b"/>
    </g>
    <g id="Grupo_2" data-name="Grupo 2">
      <circle id="Elipse_1" data-name="Elipse 1" cx="14.962" cy="14.962" r="14.962" transform="translate(184.949 392.714)" fill="url(#radial-gradient)"/>
      <circle id="Elipse_2" data-name="Elipse 2" cx="14.695" cy="14.695" r="14.695" transform="translate(113.659 396.903)" fill="url(#radial-gradient-2)"/>
      <circle id="Elipse_3" data-name="Elipse 3" cx="10.017" cy="10.017" r="10.017" transform="translate(146.894 373.789)" fill="url(#radial-gradient-3)"/>
    </g>
    <g id="Grupo_3" data-name="Grupo 3">
      <path id="Trazado_16" data-name="Trazado 16" d="M290.6,435.582h3.193l9.981,17.967V435.582h2.587v22.236h-3.044l-10.128-17.944v17.944H290.6Z" fill="#061e3b"/>
      <path id="Trazado_17" data-name="Trazado 17" d="M319.253,435.582v13.744a8.781,8.781,0,0,0,.824,4.028,4.254,4.254,0,0,0,4.12,2.421q3.474,0,4.724-2.619a9.077,9.077,0,0,0,.673-3.83V435.582h2.737V448.07a15.832,15.832,0,0,1-1,6.313q-1.833,4.025-6.918,4.025t-6.9-4.025a15.831,15.831,0,0,1-1-6.313V435.582Z" fill="#061e3b"/>
      <path id="Trazado_18" data-name="Trazado 18" d="M356.6,435.582v2.649h-6.744v19.587h-2.738V438.231h-6.744v-2.649Z" fill="#061e3b"/>
      <path id="Trazado_19" data-name="Trazado 19" d="M365,435.582h9.1a8.154,8.154,0,0,1,3.7.742q2.769,1.422,2.769,5.252a6.434,6.434,0,0,1-.742,3.27,5.6,5.6,0,0,1-2.078,2.044,4.146,4.146,0,0,1,1.765,1.392,5.432,5.432,0,0,1,.66,2.8l.1,2.982a10.2,10.2,0,0,0,.191,1.893,1.853,1.853,0,0,0,.872,1.361v.5h-3.324a3,3,0,0,1-.218-.742,15.6,15.6,0,0,1-.136-1.756l-.164-3.708a3.218,3.218,0,0,0-1.416-2.921,5.191,5.191,0,0,0-2.369-.409h-6v9.536H365Zm8.8,10.188a4.629,4.629,0,0,0,2.934-.848,3.691,3.691,0,0,0,1.08-3.058,3.4,3.4,0,0,0-1.51-3.239,4.4,4.4,0,0,0-2.16-.454h-6.438v7.6Z" fill="#061e3b"/>
      <path id="Trazado_20" data-name="Trazado 20" d="M391.017,435.582h2.738v22.236h-2.738Z" fill="#061e3b"/>
      <path id="Trazado_21" data-name="Trazado 21" d="M417.89,437.2a8.23,8.23,0,0,1,2.3,5.056H417.55a6.316,6.316,0,0,0-1.76-3.406,5.148,5.148,0,0,0-3.7-1.256,5.646,5.646,0,0,0-4.69,2.31q-1.785,2.31-1.786,7.082a11.271,11.271,0,0,0,1.614,6.34,5.39,5.39,0,0,0,4.81,2.432,4.931,4.931,0,0,0,4.484-2.559,10.5,10.5,0,0,0,1.217-3.541h2.643a10.658,10.658,0,0,1-2.317,5.888,8.41,8.41,0,0,1-12.146.514q-3.084-3.107-3.083-9.588a13.282,13.282,0,0,1,2.315-8.074,8.088,8.088,0,0,1,6.908-3.423A7.578,7.578,0,0,1,417.89,437.2Z" fill="#061e3b"/>
      <path id="Trazado_22" data-name="Trazado 22" d="M430.077,435.582h2.738v22.236h-2.738Z" fill="#061e3b"/>
      <path id="Trazado_23" data-name="Trazado 23" d="M459.279,438.762a13.244,13.244,0,0,1,1.989,7.552,14.247,14.247,0,0,1-2.275,8.28,9.445,9.445,0,0,1-14.877.484,13.775,13.775,0,0,1-2.356-8.264,14.219,14.219,0,0,1,2.016-7.72,8.471,8.471,0,0,1,7.656-4.117Q456.731,434.977,459.279,438.762Zm-2.391,14.173a13.208,13.208,0,0,0,1.6-6.568,10.07,10.07,0,0,0-1.846-6.317,6.028,6.028,0,0,0-5.047-2.394,6.277,6.277,0,0,0-5.069,2.371q-1.961,2.37-1.961,6.992a11.033,11.033,0,0,0,1.683,6.234q1.682,2.537,5.456,2.537A5.493,5.493,0,0,0,456.888,452.935Zm-1.737-24.088-3.637,4.374h-1.88l2.493-4.374Z" fill="#061e3b"/>
      <path id="Trazado_24" data-name="Trazado 24" d="M470.076,435.582h3.194l9.98,17.967V435.582h2.588v22.236h-3.045l-10.128-17.944v17.944h-2.589Z" fill="#061e3b"/>
      <path id="Trazado_25" data-name="Trazado 25" d="M496.064,454.519h2.847v3.3h-2.847Z" fill="#061e3b"/>
      <path id="Trazado_26" data-name="Trazado 26" d="M523.082,435.582h2.738v22.236h-2.738Z" fill="#061e3b"/>
      <path id="Trazado_27" data-name="Trazado 27" d="M535.8,435.582h3.193l9.981,17.967V435.582h2.588v22.236h-3.045L538.39,439.874v17.944H535.8Z" fill="#061e3b"/>
      <path id="Trazado_28" data-name="Trazado 28" d="M561.529,435.582h3.194l9.98,17.967V435.582h2.588v22.236h-3.045l-10.128-17.944v17.944h-2.589Z" fill="#061e3b"/>
      <path id="Trazado_29" data-name="Trazado 29" d="M603.742,438.762a13.252,13.252,0,0,1,1.989,7.552,14.247,14.247,0,0,1-2.275,8.28,9.445,9.445,0,0,1-14.877.484,13.775,13.775,0,0,1-2.356-8.264,14.219,14.219,0,0,1,2.016-7.72,8.471,8.471,0,0,1,7.656-4.117Q601.194,434.977,603.742,438.762Zm-2.391,14.173a13.208,13.208,0,0,0,1.6-6.568,10.07,10.07,0,0,0-1.846-6.317,6.029,6.029,0,0,0-5.047-2.394,6.277,6.277,0,0,0-5.069,2.371q-1.961,2.37-1.961,6.992a11.033,11.033,0,0,0,1.683,6.234q1.682,2.537,5.456,2.537A5.493,5.493,0,0,0,601.351,452.935Z" fill="#061e3b"/>
      <path id="Trazado_30" data-name="Trazado 30" d="M616.126,435.582l5.749,18.937,5.681-18.937h3.038l-7.3,22.236h-2.874l-7.289-22.236Z" fill="#061e3b"/>
      <path id="Trazado_31" data-name="Trazado 31" d="M642.512,435.582h3.06l7.264,22.236h-2.97l-2.09-6.66h-7.85l-2.171,6.66h-2.779Zm4.5,13.124-3.081-9.823-3.2,9.823Z" fill="#061e3b"/>
      <path id="Trazado_32" data-name="Trazado 32" d="M675.016,437.2a8.235,8.235,0,0,1,2.3,5.056h-2.642a6.317,6.317,0,0,0-1.76-3.406,5.148,5.148,0,0,0-3.7-1.256,5.647,5.647,0,0,0-4.69,2.31q-1.785,2.31-1.786,7.082a11.271,11.271,0,0,0,1.614,6.34,5.39,5.39,0,0,0,4.81,2.432,4.929,4.929,0,0,0,4.483-2.559,10.481,10.481,0,0,0,1.218-3.541h2.643a10.657,10.657,0,0,1-2.317,5.888,8.41,8.41,0,0,1-12.146.514q-3.084-3.107-3.083-9.588a13.282,13.282,0,0,1,2.315-8.074,8.088,8.088,0,0,1,6.908-3.423A7.58,7.58,0,0,1,675.016,437.2Z" fill="#061e3b"/>
      <path id="Trazado_33" data-name="Trazado 33" d="M687.2,435.582h2.738v22.236H687.2Z" fill="#061e3b"/>
      <path id="Trazado_34" data-name="Trazado 34" d="M716.406,438.762a13.252,13.252,0,0,1,1.989,7.552,14.247,14.247,0,0,1-2.275,8.28,9.445,9.445,0,0,1-14.877.484,13.775,13.775,0,0,1-2.356-8.264,14.219,14.219,0,0,1,2.016-7.72,8.471,8.471,0,0,1,7.656-4.117Q713.858,434.977,716.406,438.762Zm-2.391,14.173a13.208,13.208,0,0,0,1.6-6.568,10.07,10.07,0,0,0-1.846-6.317,6.029,6.029,0,0,0-5.047-2.394,6.277,6.277,0,0,0-5.069,2.371q-1.961,2.37-1.961,6.992a11.033,11.033,0,0,0,1.683,6.234q1.682,2.537,5.456,2.537A5.493,5.493,0,0,0,714.015,452.935Zm-1.737-24.088-3.637,4.374h-1.88l2.493-4.374Z" fill="#061e3b"/>
      <path id="Trazado_35" data-name="Trazado 35" d="M727.2,435.582H730.4l9.98,17.967V435.582h2.588v22.236h-3.045l-10.128-17.944v17.944H727.2Z" fill="#061e3b"/>
      <path id="Trazado_36" data-name="Trazado 36" d="M753.189,454.519h2.848v3.3h-2.848Z" fill="#061e3b"/>
      <path id="Trazado_37" data-name="Trazado 37" d="M793.749,437.2a8.237,8.237,0,0,1,2.3,5.056h-2.643a6.316,6.316,0,0,0-1.76-3.406,5.147,5.147,0,0,0-3.7-1.256,5.645,5.645,0,0,0-4.689,2.31q-1.786,2.31-1.786,7.082a11.279,11.279,0,0,0,1.613,6.34,5.391,5.391,0,0,0,4.81,2.432,4.93,4.93,0,0,0,4.484-2.559,10.5,10.5,0,0,0,1.218-3.541h2.642a10.657,10.657,0,0,1-2.316,5.888,8.411,8.411,0,0,1-12.147.514q-3.082-3.107-3.083-9.588a13.283,13.283,0,0,1,2.316-8.074,8.086,8.086,0,0,1,6.907-3.423A7.578,7.578,0,0,1,793.749,437.2Z" fill="#061e3b"/>
      <path id="Trazado_38" data-name="Trazado 38" d="M811.163,435.582h3.061l7.263,22.236h-2.969l-2.09-6.66h-7.851l-2.171,6.66h-2.779Zm4.5,13.124-3.081-9.823-3.2,9.823Z" fill="#061e3b"/>
      <path id="Trazado_39" data-name="Trazado 39" d="M829.444,435.582h3.885l5.754,18.8,5.714-18.8h3.856v22.236h-2.589V444.7q0-.683.028-2.256t.027-3.375l-5.713,18.754H837.72l-5.769-18.754v.681q0,.818.041,2.49t.041,2.46v13.123h-2.589Z" fill="#061e3b"/>
      <path id="Trazado_40" data-name="Trazado 40" d="M858.266,435.582h8.653q3.537,0,5.032,2.332a5.787,5.787,0,0,1,.878,3.178,4.926,4.926,0,0,1-2.683,4.754,6.671,6.671,0,0,1,2.3,1.467,5.665,5.665,0,0,1,1.349,4.011,6.616,6.616,0,0,1-1.22,3.891q-1.822,2.6-5.8,2.6h-8.512Zm7.64,9.4a5.664,5.664,0,0,0,2.7-.529,3.121,3.121,0,0,0,1.514-3,2.924,2.924,0,0,0-1.61-2.935,6.624,6.624,0,0,0-2.7-.424h-4.887v6.886Zm.916,10.263a4,4,0,0,0,3.589-1.6,4.334,4.334,0,0,0,.674-2.453,3.28,3.28,0,0,0-1.966-3.3,6.827,6.827,0,0,0-2.764-.469h-5.432v7.825Z" fill="#061e3b"/>
      <path id="Trazado_41" data-name="Trazado 41" d="M883.137,435.582h2.738v22.236h-2.738Z" fill="#061e3b"/>
      <path id="Trazado_42" data-name="Trazado 42" d="M901.7,435.582h3.061l7.264,22.236h-2.97l-2.09-6.66h-7.851l-2.17,6.66h-2.78Zm4.5,13.124-3.081-9.823-3.2,9.823Z" fill="#061e3b"/>
      <path id="Trazado_43" data-name="Trazado 43" d="M920.372,435.582h9.1a8.154,8.154,0,0,1,3.705.742q2.77,1.422,2.769,5.252a6.434,6.434,0,0,1-.742,3.27,5.6,5.6,0,0,1-2.078,2.044,4.146,4.146,0,0,1,1.765,1.392,5.431,5.431,0,0,1,.66,2.8l.1,2.982a10.14,10.14,0,0,0,.19,1.893,1.853,1.853,0,0,0,.872,1.361v.5h-3.324a3,3,0,0,1-.218-.742,15.6,15.6,0,0,1-.136-1.756l-.164-3.708a3.218,3.218,0,0,0-1.416-2.921,5.191,5.191,0,0,0-2.369-.409h-6v9.536h-2.711Zm8.8,10.188a4.629,4.629,0,0,0,2.934-.848,3.691,3.691,0,0,0,1.08-3.058,3.4,3.4,0,0,0-1.51-3.239,4.4,4.4,0,0,0-2.159-.454h-6.439v7.6Z" fill="#061e3b"/>
      <path id="Trazado_44" data-name="Trazado 44" d="M959.364,435.582h14.523v2.725H962.008v6.752h10.979v2.572H962.008v7.539h12.083v2.648H959.364Z" fill="#061e3b"/>
      <path id="Trazado_45" data-name="Trazado 45" d="M983.294,435.582h2.711V455.17h10.04v2.648H983.294Z" fill="#061e3b"/>
      <path id="Trazado_46" data-name="Trazado 46" d="M1016.632,435.582h3.885l5.754,18.8,5.713-18.8h3.857v22.236h-2.589V444.7q0-.683.027-2.256t.028-3.375l-5.713,18.754h-2.687l-5.768-18.754v.681q0,.818.041,2.49t.041,2.46v13.123h-2.589Z" fill="#061e3b"/>
      <path id="Trazado_47" data-name="Trazado 47" d="M1048.45,435.582v13.744a8.793,8.793,0,0,0,.824,4.028,4.254,4.254,0,0,0,4.121,2.421q3.472,0,4.723-2.619a9.077,9.077,0,0,0,.673-3.83V435.582h2.737V448.07a15.831,15.831,0,0,1-1,6.313q-1.831,4.025-6.918,4.025t-6.9-4.025a15.833,15.833,0,0,1-1-6.313V435.582Z" fill="#061e3b"/>
      <path id="Trazado_48" data-name="Trazado 48" d="M1071.25,435.582h3.193l9.981,17.967V435.582h2.588v22.236h-3.045l-10.128-17.944v17.944h-2.589Z" fill="#061e3b"/>
      <path id="Trazado_49" data-name="Trazado 49" d="M1097.1,435.582h8a7.237,7.237,0,0,1,6.318,3.255,13.079,13.079,0,0,1,2,7.522,16.612,16.612,0,0,1-1.184,6.4q-2.082,5.055-7.165,5.055H1097.1Zm7.466,19.663a6.529,6.529,0,0,0,2.211-.317,5.025,5.025,0,0,0,2.532-2.272,10.1,10.1,0,0,0,1.131-3.451,14.8,14.8,0,0,0,.2-2.33,11.99,11.99,0,0,0-1.446-6.418,5.094,5.094,0,0,0-4.655-2.286h-4.7v17.074Z" fill="#061e3b"/>
      <path id="Trazado_50" data-name="Trazado 50" d="M1139.191,438.762a13.245,13.245,0,0,1,1.989,7.552,14.248,14.248,0,0,1-2.275,8.28,9.445,9.445,0,0,1-14.877.484,13.776,13.776,0,0,1-2.356-8.264,14.211,14.211,0,0,1,2.017-7.72,8.468,8.468,0,0,1,7.655-4.117Q1136.643,434.977,1139.191,438.762Zm-2.391,14.173a13.209,13.209,0,0,0,1.6-6.568,10.07,10.07,0,0,0-1.846-6.317,6.028,6.028,0,0,0-5.047-2.394,6.279,6.279,0,0,0-5.069,2.371q-1.961,2.37-1.96,6.992a11.032,11.032,0,0,0,1.682,6.234q1.681,2.537,5.456,2.537A5.494,5.494,0,0,0,1136.8,452.935Z" fill="#061e3b"/>
      <path id="Trazado_51" data-name="Trazado 51" d="M1146.76,454.519h2.847v3.3h-2.847Z" fill="#061e3b"/>
    </g>
  </g>
</svg>